<svg width="61" height="60" viewBox="0 0 61 60" fill="none" xmlns="http://www.w3.org/2000/svg">
<g id="Icon Persons">
<path id="Ellipse 3" d="M60.671 30C60.671 46.5685 47.2396 60 30.671 60C14.1025 60 0.671021 46.5685 0.671021 30C0.671021 13.4315 14.1025 0 30.671 0C47.2396 0 60.671 13.4315 60.671 30Z" fill="#667294"/>
<g id="Vector">
<path d="M22.3023 23.6015C24.3078 23.6015 25.9336 22.0321 25.9336 20.096C25.9336 18.16 24.3078 16.5905 22.3023 16.5905C20.2968 16.5905 18.671 18.16 18.671 20.096C18.671 22.0321 20.2968 23.6015 22.3023 23.6015Z" stroke="#F4F4F4" stroke-width="3.21429" stroke-linecap="round" stroke-linejoin="round"/>
<path d="M35.5649 23.6015C37.5704 23.6015 39.1962 22.0321 39.1962 20.096C39.1962 18.16 37.5704 16.5905 35.5649 16.5905C33.5594 16.5905 31.9336 18.16 31.9336 20.096C31.9336 22.0321 33.5594 23.6015 35.5649 23.6015Z" stroke="#F4F4F4" stroke-width="3.21429" stroke-linecap="round" stroke-linejoin="round"/>
<path d="M23.2101 38.8708C18.671 38.8708 18.671 26.6015 18.671 26.6015H27.7492C27.7492 26.6015 27.7492 38.8708 23.2101 38.8708Z" stroke="#F4F4F4" stroke-width="3.21429" stroke-linecap="round" stroke-linejoin="round"/>
<path d="M38.2883 26.6015C33.7492 26.6015 33.7492 38.8708 33.7492 38.8708H42.8275C42.8275 38.8708 42.8275 26.6015 38.2883 26.6015Z" stroke="#F4F4F4" stroke-width="3.21429" stroke-linecap="round" stroke-linejoin="round"/>
</g>
</g>
</svg>
