<svg width="45" height="45" viewBox="0 0 45 45" fill="none" xmlns="http://www.w3.org/2000/svg">
<g id="Icon 2">
<g id="Icon 2_2">
<path d="M45 22.5C45 34.9264 34.9264 45 22.5 45C10.0736 45 0 34.9264 0 22.5C0 10.0736 10.0736 0 22.5 0C34.9264 0 45 10.0736 45 22.5Z" fill="#D9D9D9"/>
<path d="M16.108 32V30.2102L22.8295 22.8523C23.6184 21.9905 24.268 21.2415 24.7784 20.6051C25.2888 19.9621 25.6667 19.3589 25.9119 18.7955C26.1638 18.2254 26.2898 17.6288 26.2898 17.0057C26.2898 16.2898 26.1174 15.67 25.7727 15.1463C25.4347 14.6226 24.9706 14.2183 24.3807 13.9332C23.7907 13.6482 23.1278 13.5057 22.392 13.5057C21.6098 13.5057 20.9271 13.6681 20.3438 13.9929C19.767 14.3111 19.3196 14.7585 19.0014 15.3352C18.6899 15.9119 18.5341 16.5881 18.5341 17.3636H16.1875C16.1875 16.1705 16.4626 15.1231 17.0128 14.2216C17.563 13.3201 18.312 12.6174 19.2599 12.1136C20.2145 11.6098 21.285 11.358 22.4716 11.358C23.6648 11.358 24.7221 11.6098 25.6435 12.1136C26.5649 12.6174 27.2874 13.2969 27.8111 14.152C28.3348 15.0071 28.5966 15.9583 28.5966 17.0057C28.5966 17.7547 28.4607 18.4872 28.1889 19.2031C27.9238 19.9124 27.4598 20.7045 26.7969 21.5795C26.1406 22.4479 25.2292 23.5085 24.0625 24.7614L19.4886 29.6534V29.8125H28.9545V32H16.108Z" fill="#667294"/>
</g>
</g>
</svg>
