<svg width="45" height="45" viewBox="0 0 45 45" fill="none" xmlns="http://www.w3.org/2000/svg">
<g id="Icon 3">
<g id="Icon 3_2">
<path d="M45 22.5C45 34.9264 34.9264 45 22.5 45C10.0736 45 0 34.9264 0 22.5C0 10.0736 10.0736 0 22.5 0C34.9264 0 45 10.0736 45 22.5Z" fill="#D9D9D9"/>
<path d="M21.9886 32.2784C20.6761 32.2784 19.5062 32.053 18.4787 31.6023C17.4579 31.1515 16.6458 30.5251 16.0426 29.723C15.446 28.9143 15.1212 27.9763 15.0682 26.9091H17.5739C17.6269 27.5653 17.8523 28.1321 18.25 28.6094C18.6477 29.08 19.1681 29.4446 19.8111 29.7031C20.4541 29.9616 21.1667 30.0909 21.9489 30.0909C22.8239 30.0909 23.5994 29.9384 24.2756 29.6335C24.9517 29.3286 25.482 28.9044 25.8665 28.3608C26.2509 27.8172 26.4432 27.1875 26.4432 26.4716C26.4432 25.7225 26.2576 25.063 25.8864 24.4929C25.5152 23.9162 24.9716 23.4654 24.2557 23.1406C23.5398 22.8158 22.6648 22.6534 21.6307 22.6534H20V20.4659H21.6307C22.4394 20.4659 23.1487 20.3201 23.7585 20.0284C24.375 19.7367 24.8556 19.3258 25.2003 18.7955C25.5516 18.2652 25.7273 17.642 25.7273 16.9261C25.7273 16.2367 25.5748 15.6368 25.2699 15.1264C24.965 14.616 24.5341 14.2183 23.9773 13.9332C23.4271 13.6482 22.7775 13.5057 22.0284 13.5057C21.3258 13.5057 20.6629 13.6349 20.0398 13.8935C19.4233 14.1454 18.9195 14.5133 18.5284 14.9972C18.1373 15.4744 17.9252 16.0511 17.892 16.7273H15.5057C15.5455 15.66 15.867 14.7254 16.4702 13.9233C17.0734 13.1146 17.8622 12.4848 18.8366 12.0341C19.8177 11.5833 20.8949 11.358 22.0682 11.358C23.3277 11.358 24.4081 11.6132 25.3097 12.1236C26.2112 12.6274 26.9039 13.2936 27.3878 14.1222C27.8717 14.9508 28.1136 15.8456 28.1136 16.8068C28.1136 17.9536 27.812 18.9313 27.2088 19.7401C26.6122 20.5488 25.8002 21.1089 24.7727 21.4205V21.5795C26.0587 21.7917 27.063 22.3385 27.7855 23.2202C28.508 24.0952 28.8693 25.179 28.8693 26.4716C28.8693 27.5786 28.5677 28.5729 27.9645 29.4545C27.3679 30.3295 26.5526 31.0189 25.5185 31.5227C24.4844 32.0265 23.3078 32.2784 21.9886 32.2784Z" fill="#667294"/>
</g>
</g>
</svg>
