<svg width="70" height="63" viewBox="0 0 70 63" fill="none" xmlns="http://www.w3.org/2000/svg">
<g id="Vector">
<path d="M9.49233 51.2885C-3.46887 37.3412 -3.06063 15.7548 10.1274 2.293L10.1425 2.30896C10.2341 2.20144 10.3298 2.08719 10.434 1.98723C12.9809 -0.620965 17.1565 -0.667165 19.758 1.88056C22.3653 4.42828 22.4115 8.60728 19.8613 11.2113C19.758 11.3154 19.6513 11.4112 19.5404 11.5061L19.5513 11.5137C8.88081 22.4858 8.57421 40.009 19.1103 51.3456C29.9446 63.0107 48.1659 63.7138 59.8747 52.9442C59.8025 53.0055 59.7378 53.0735 59.6697 53.1357C45.304 66.4841 22.8399 65.6584 9.49233 51.2885Z" fill="#6A71F1"/>
<path d="M23.5657 50.1898C13.8444 39.7318 14.1501 23.5425 24.0403 13.4457L24.0478 13.4616C24.1201 13.3768 24.1932 13.2928 24.2705 13.2164C26.1781 11.2625 29.3113 11.2281 31.2651 13.1408C33.2198 15.0484 33.2509 18.1816 31.3382 20.1354C31.2651 20.2152 31.1769 20.2833 31.1005 20.3538L31.1081 20.3606C23.1071 28.5909 22.8819 41.7318 30.7788 50.2385C38.9058 58.9888 52.5709 59.5121 61.348 51.438C61.2985 51.4842 61.2515 51.5296 61.1901 51.5808C50.4213 61.5886 33.5709 60.9687 23.5657 50.1898Z" fill="#303D4D"/>
<path d="M57.773 50.8946C67.4716 46.3434 71.801 35.0001 67.7505 25.2057L67.7388 25.209C67.7161 25.1334 67.6942 25.0562 67.659 24.9797C66.8744 23.083 64.7097 22.18 62.813 22.9604C60.9163 23.7449 60.0166 25.9138 60.7962 27.8097C60.8306 27.8853 60.8659 27.9542 60.9003 28.0314H60.8961C64.152 35.9972 60.6256 45.2036 52.7464 48.9054C44.6396 52.7073 34.9855 49.2389 31.1458 41.1564C31.1652 41.2094 31.1887 41.2564 31.2105 41.3026C35.8969 51.2885 47.7905 55.5843 57.773 50.8946Z" fill="#6A71F1"/>
<path d="M50.6675 47.3674C57.9326 43.9528 61.1843 35.4444 58.1468 28.1003H58.1393C58.1208 28.044 58.1006 27.9819 58.0788 27.9256C57.4899 26.5068 55.8645 25.829 54.4449 26.4186C53.0237 26.9991 52.35 28.6287 52.9304 30.0474C52.9607 30.1054 52.9833 30.1583 53.0111 30.2121L53.0077 30.2205C55.4462 36.1929 52.8011 43.0935 46.8917 45.8697C40.8109 48.7223 33.5709 46.1225 30.6881 40.0628C30.7065 40.0947 30.7259 40.1333 30.741 40.1711C34.2606 47.6589 43.1747 50.8794 50.6675 47.3674Z" fill="#303D4D"/>
</g>
</svg>
