<svg width="34" height="33" viewBox="0 0 34 33" fill="none" xmlns="http://www.w3.org/2000/svg">
<g id="Vector">
<path d="M33.1582 16.5C33.1582 25.6127 25.7709 33 16.6582 33C7.54551 33 0.158203 25.6127 0.158203 16.5C0.158203 7.3873 7.54551 0 16.6582 0C25.7709 0 33.1582 7.3873 33.1582 16.5Z" fill="#667294"/>
<path fill-rule="evenodd" clip-rule="evenodd" d="M15.2432 6.54689C15.4439 6.33385 15.7436 6.33385 15.9442 6.54689L20.2023 11.0673C20.3178 11.19 20.3841 11.3671 20.3841 11.5533V23.8231C20.3841 24.1797 20.1458 24.4689 19.8518 24.4689H11.3357C11.0417 24.4689 10.8034 24.1797 10.8034 23.8231V11.5533C10.8034 11.3671 10.8697 11.19 10.9852 11.0673L15.2432 6.54689ZM11.8679 11.8464V23.1773H19.3195V11.8464L15.5937 7.89097L11.8679 11.8464Z" fill="#FAFAFA"/>
<path fill-rule="evenodd" clip-rule="evenodd" d="M19.3196 14.7822C19.3196 14.4255 19.5579 14.1364 19.8518 14.1364H25.1744C25.4683 14.1364 25.7066 14.4255 25.7066 14.7822V23.8231C25.7066 24.1797 25.4683 24.4688 25.1744 24.4688L19.8518 24.4689C19.5578 24.4689 19.3196 24.1797 19.3196 23.8231C19.3196 23.4664 19.5579 23.1773 19.8518 23.1773H24.6421V15.428H19.8518C19.5579 15.428 19.3196 15.1388 19.3196 14.7822Z" fill="#FAFAFA"/>
<path fill-rule="evenodd" clip-rule="evenodd" d="M15.5937 20.5942C15.8877 20.5942 16.126 20.8833 16.126 21.24V23.8231C16.126 24.1797 15.8877 24.4688 15.5937 24.4688C15.2998 24.4688 15.0615 24.1797 15.0615 23.8231V21.24C15.0615 20.8833 15.2998 20.5942 15.5937 20.5942Z" fill="#FAFAFA"/>
<path fill-rule="evenodd" clip-rule="evenodd" d="M13.4647 17.3653C13.4647 17.0086 13.703 16.7195 13.9969 16.7195H17.1905C17.4844 16.7195 17.7227 17.0086 17.7227 17.3653C17.7227 17.7219 17.4844 18.0111 17.1905 18.0111H13.9969C13.703 18.0111 13.4647 17.7219 13.4647 17.3653Z" fill="#FAFAFA"/>
<path fill-rule="evenodd" clip-rule="evenodd" d="M13.4647 13.4906C13.4647 13.134 13.703 12.8449 13.9969 12.8449H17.1905C17.4844 12.8449 17.7227 13.134 17.7227 13.4906C17.7227 13.8473 17.4844 14.1364 17.1905 14.1364H13.9969C13.703 14.1364 13.4647 13.8473 13.4647 13.4906Z" fill="#FAFAFA"/>
</g>
</svg>
