<svg width="61" height="60" viewBox="0 0 61 60" fill="none" xmlns="http://www.w3.org/2000/svg">
<g id="Icon Communication">
<path id="Ellipse 1" d="M60.557 30C60.557 46.5685 47.0234 60 30.329 60C13.6345 60 0.100952 46.5685 0.100952 30C0.100952 13.4315 13.6345 0 30.329 0C47.0234 0 60.557 13.4315 60.557 30Z" fill="#667294"/>
<g id="Group">
<path id="Vector" d="M21.5325 30.3704C22.2685 30.3704 22.8653 29.7781 22.8653 29.0476C22.8653 28.3171 22.2685 27.7249 21.5325 27.7249C20.7964 27.7249 20.1996 28.3171 20.1996 29.0476C20.1996 29.7781 20.7964 30.3704 21.5325 30.3704Z" stroke="white" stroke-width="3.57143" stroke-linecap="round" stroke-linejoin="round"/>
<path id="Vector_2" d="M30.1957 30.3704C30.9318 30.3704 31.5285 29.7781 31.5285 29.0476C31.5285 28.3171 30.9318 27.7249 30.1957 27.7249C29.4596 27.7249 28.8629 28.3171 28.8629 29.0476C28.8629 29.7781 29.4596 30.3704 30.1957 30.3704Z" stroke="white" stroke-width="3.57143" stroke-linecap="round" stroke-linejoin="round"/>
<path id="Vector_3" d="M38.8589 30.3704C39.595 30.3704 40.1917 29.7781 40.1917 29.0476C40.1917 28.3171 39.595 27.7249 38.8589 27.7249C38.1228 27.7249 37.5261 28.3171 37.5261 29.0476C37.5261 29.7781 38.1228 30.3704 38.8589 30.3704Z" stroke="white" stroke-width="3.57143" stroke-linecap="round" stroke-linejoin="round"/>
<path id="Vector_4" d="M30.8621 11.8519C27.728 11.8528 24.6528 12.6975 21.9641 14.2958C19.2755 15.8942 17.074 18.1864 15.5941 20.9283C14.1143 23.6702 13.4115 26.7591 13.5607 29.866C13.7098 32.973 14.7053 35.9816 16.4412 38.5714L13.5356 46.2434L23.2651 44.4974C25.6079 45.6336 28.179 46.2304 30.7865 46.2432C33.3941 46.256 35.9709 45.6845 38.325 44.5714C40.679 43.4582 42.7496 41.8321 44.3822 39.8142C46.0149 37.7964 47.1676 35.4388 47.7544 32.9172C48.3412 30.3957 48.3469 27.7752 47.7712 25.2511C47.1955 22.7271 46.0532 20.3645 44.4294 18.3396C42.8056 16.3147 40.7423 14.6796 38.3932 13.5563C36.044 12.433 33.4697 11.8503 30.8621 11.8519Z" stroke="white" stroke-width="3.57143" stroke-linecap="round" stroke-linejoin="round"/>
</g>
</g>
</svg>
