<svg width="61" height="60" viewBox="0 0 61 60" fill="none" xmlns="http://www.w3.org/2000/svg">
<g id="Icon Security">
<path id="Ellipse 2" d="M60.443 30C60.443 46.5685 47.0115 60 30.443 60C13.8745 60 0.442993 46.5685 0.442993 30C0.442993 13.4315 13.8745 0 30.443 0C47.0115 0 60.443 13.4315 60.443 30Z" fill="#667294"/>
<path id="Vector" d="M27.5765 28.6918H34.9734M27.5765 28.6918C26.2147 28.6918 25.1108 29.7957 25.1108 31.1574V36.0887C25.1108 37.4505 26.2147 38.5544 27.5765 38.5544H34.9734C36.3351 38.5544 37.439 37.4505 37.439 36.0887V31.1574C37.439 29.7957 36.3351 28.6918 34.9734 28.6918M27.5765 28.6918L27.5764 26.2262C27.5764 25.7405 27.6721 25.2596 27.858 24.8109C28.0438 24.3622 28.3163 23.9544 28.6597 23.611C29.0031 23.2676 29.4108 22.9952 29.8596 22.8093C30.3083 22.6234 30.7892 22.5278 31.2749 22.5278C31.7606 22.5278 32.2415 22.6234 32.6902 22.8093C33.139 22.9952 33.5467 23.2676 33.8901 23.611C34.2335 23.9544 34.506 24.3622 34.6918 24.8109C34.8777 25.2596 34.9734 25.7405 34.9734 26.2262L34.9734 28.6918M32.1625 48.2444C31.5913 48.4648 30.9585 48.4648 30.3873 48.2444C25.9262 46.4952 22.0956 43.4423 19.3952 39.484C16.6947 35.5256 15.2496 30.8454 15.2482 26.0536V18.8293C15.2482 18.1754 15.508 17.5482 15.9704 17.0858C16.4328 16.6234 17.0599 16.3636 17.7139 16.3636H44.8359C45.4899 16.3636 46.117 16.6234 46.5794 17.0858C47.0418 17.5482 47.3016 18.1754 47.3016 18.8293V26.029C47.3052 30.825 45.8624 35.5106 43.1616 39.4738C40.4608 43.437 36.6276 46.4936 32.1625 48.2444Z" stroke="#F4F4F4" stroke-width="3.57143" stroke-linecap="round" stroke-linejoin="round"/>
</g>
</svg>
